<svg width="362" height="68" viewBox="0 0 362 68" fill="none" xmlns="http://www.w3.org/2000/svg">
<path fill-rule="evenodd" clip-rule="evenodd" d="M30.7452 14.4815L12 25.301V36.1204L12.2072 36.2413L12 36.3609L49.4903 57.9999L49.5043 57.9918L49.5181 57.9999L49.6409 57.913L68.2355 47.1804C75.8936 42.7602 77.8868 36.3086 74.2153 30.8309C77.8868 25.3532 75.8936 18.9016 68.2355 14.4815C57.8828 8.50602 41.0978 8.50602 30.7452 14.4815ZM18.1975 25.301L33.844 16.27C42.4852 11.2824 56.4955 11.2824 65.1368 16.27C73.7781 21.2577 73.7781 29.3442 65.1368 34.3319L49.4904 43.3628L34.7027 34.8276L38.3812 32.7044C40.8213 33.4667 43.9344 33.2528 45.9966 32.0625C48.5107 30.6114 48.5107 28.2586 45.9966 26.8075C43.4824 25.3564 39.4062 25.3564 36.8921 26.8075C34.8299 27.9978 34.4592 29.7946 35.7799 31.203L32.1015 33.3261L18.1975 25.301Z" fill="#F7F8F9"/>
<path d="M103.484 52V15.756H114.04C120.072 15.756 124.735 17.3507 128.028 20.54C131.321 23.7293 132.968 28.2707 132.968 34.164C132.968 39.9187 131.339 44.3387 128.08 47.424C124.821 50.4747 120.124 52 113.988 52H103.484ZM110.192 45.812H113.312C116.051 45.812 118.373 45.4653 120.28 44.772C122.187 44.0787 123.643 42.8653 124.648 41.132C125.688 39.3987 126.208 36.9893 126.208 33.904C126.208 30.9227 125.705 28.5653 124.7 26.832C123.729 25.064 122.325 23.816 120.488 23.088C118.685 22.3253 116.501 21.944 113.936 21.944H110.192V45.812ZM140.291 62.608L145.491 50.024L135.819 26.364H142.891L148.923 43.576L155.059 26.364H162.027L147.311 62.608H140.291ZM166.039 52V26.364H172.539V32.188L171.499 32.292C171.95 30.732 172.609 29.484 173.475 28.548C174.342 27.612 175.347 26.936 176.491 26.52C177.635 26.0693 178.814 25.844 180.027 25.844C182.939 25.844 185.21 26.676 186.839 28.34C188.503 29.9693 189.335 32.2747 189.335 35.256V52H182.835V37.648C182.835 35.4987 182.454 33.9387 181.691 32.968C180.929 31.9627 179.733 31.46 178.103 31.46C176.855 31.46 175.815 31.7547 174.983 32.344C174.186 32.8987 173.579 33.7827 173.163 34.996C172.747 36.2093 172.539 37.7867 172.539 39.728V52H166.039ZM211.823 52L211.303 48.152V35.828C211.303 34.3027 210.817 33.176 209.847 32.448C208.911 31.6853 207.628 31.304 205.999 31.304C204.647 31.304 203.26 31.5813 201.839 32.136C200.452 32.656 199.221 33.4013 198.147 34.372L194.871 29.952C196.673 28.496 198.511 27.456 200.383 26.832C202.289 26.1733 204.335 25.844 206.519 25.844C210.055 25.844 212.811 26.728 214.787 28.496C216.763 30.264 217.751 32.708 217.751 35.828V52H211.823ZM204.075 52.52C202.203 52.52 200.521 52.1733 199.031 51.48C197.575 50.7867 196.413 49.7987 195.547 48.516C194.715 47.2333 194.299 45.76 194.299 44.096C194.299 42.6053 194.593 41.34 195.183 40.3C195.807 39.2253 196.621 38.4107 197.627 37.856C198.493 37.336 199.447 36.972 200.487 36.764C201.561 36.556 202.705 36.452 203.919 36.452H211.875V41.236H204.855C204.3 41.236 203.745 41.288 203.191 41.392C202.671 41.4613 202.22 41.652 201.839 41.964C201.492 42.2067 201.232 42.5187 201.059 42.9C200.885 43.2467 200.799 43.6453 200.799 44.096C200.799 45.0667 201.18 45.8467 201.943 46.436C202.705 47.0253 203.728 47.32 205.011 47.32C206.155 47.32 207.195 47.0773 208.131 46.592C209.101 46.072 209.864 45.3787 210.419 44.512C211.008 43.6107 211.303 42.588 211.303 41.444L213.019 44.876C212.568 46.6787 211.875 48.152 210.939 49.296C210.037 50.4053 208.997 51.22 207.819 51.74C206.64 52.26 205.392 52.52 204.075 52.52ZM223.777 52V26.364H230.277V33.02L228.873 34.112C229.116 32.4827 229.532 31.1307 230.121 30.056C230.711 28.9813 231.404 28.1493 232.201 27.56C233.033 26.936 233.883 26.5027 234.749 26.26C235.651 25.9827 236.535 25.844 237.401 25.844C238.753 25.844 240.036 26.104 241.249 26.624C242.463 27.1093 243.52 27.9587 244.421 29.172C245.323 30.3853 245.947 32.0493 246.293 34.164L242.445 35.568C242.965 33.1413 243.711 31.2173 244.681 29.796C245.687 28.3747 246.831 27.3693 248.113 26.78C249.431 26.156 250.817 25.844 252.273 25.844C254.457 25.844 256.225 26.3293 257.577 27.3C258.929 28.2707 259.917 29.5187 260.541 31.044C261.2 32.5347 261.529 34.1293 261.529 35.828V52H255.081V37.388C255.081 36.1053 254.908 35.0307 254.561 34.164C254.249 33.2627 253.781 32.5867 253.157 32.136C252.533 31.6853 251.719 31.46 250.713 31.46C249.673 31.46 248.789 31.7373 248.061 32.292C247.333 32.8467 246.779 33.6787 246.397 34.788C246.051 35.8973 245.877 37.3187 245.877 39.052V52H239.429V37.284C239.429 35.3427 239.065 33.8867 238.337 32.916C237.644 31.9453 236.621 31.46 235.269 31.46C234.195 31.46 233.276 31.7373 232.513 32.292C231.785 32.8467 231.231 33.6787 230.849 34.788C230.468 35.8973 230.277 37.3187 230.277 39.052V52H223.777ZM279.354 52.52C276.858 52.52 274.639 51.948 272.698 50.804C270.756 49.66 269.214 48.0827 268.07 46.072C266.96 44.0267 266.406 41.7213 266.406 39.156C266.406 36.556 266.96 34.268 268.07 32.292C269.179 30.2813 270.704 28.704 272.646 27.56C274.622 26.416 276.858 25.844 279.354 25.844C281.815 25.844 284.016 26.416 285.958 27.56C287.899 28.704 289.424 30.2813 290.534 32.292C291.643 34.268 292.198 36.556 292.198 39.156C292.198 41.7213 291.643 44.0093 290.534 46.02C289.424 48.0307 287.899 49.6253 285.958 50.804C284.016 51.948 281.815 52.52 279.354 52.52ZM279.354 46.852C280.671 46.852 281.798 46.54 282.734 45.916C283.704 45.292 284.432 44.408 284.918 43.264C285.438 42.12 285.698 40.7507 285.698 39.156C285.698 37.5267 285.438 36.1573 284.918 35.048C284.432 33.904 283.704 33.0373 282.734 32.448C281.798 31.824 280.671 31.512 279.354 31.512C278.002 31.512 276.84 31.824 275.87 32.448C274.899 33.0373 274.154 33.904 273.634 35.048C273.114 36.1573 272.854 37.5267 272.854 39.156C272.854 40.7507 273.114 42.12 273.634 43.264C274.154 44.408 274.899 45.292 275.87 45.916C276.84 46.54 278.002 46.852 279.354 46.852Z" fill="white"/>
<path d="M303.728 52L317.82 15.756H321.928L335.968 52H330.196L319.9 23.452L309.552 52H303.728ZM312.048 43.94L313.66 39.208H326.036L327.804 43.94H312.048ZM340.67 52V15.756H345.974V52H340.67Z" fill="white"/>
</svg>
